<?xml version="1.0" standalone="yes"?>
<svg xmlns="http://www.w3.org/2000/svg" width="258" height="158">
<!-- <path style="fill:; stroke:none;" d="M0 0L0 158L258 158L258 0L0 0z"/> -->
<path style="fill:#6a6b6b; stroke:none;" d="M67 16L68 17L67 16z"/>
<path style="fill:#010101; stroke:none;" d="M68.2292 16.8511C64.3476 18.1422 65.7029 22.5695 67.4375 25C71.9171 31.2766 78.5146 36.174 83.5756 42C102.054 63.271 123.071 83.0711 143 103C146.677 106.677 157.316 122.141 162.98 120.654C174.519 117.625 155.018 102.031 152.001 99C131.723 78.6238 112.337 57.3369 92 37C87.6309 32.6309 75.2464 14.517 68.2292 16.8511z"/>
<path style="fill:#6a6b6b; stroke:none;" d="M71 16L72 17L71 16z"/>
<path style="fill:#9e9e9e; stroke:none;" d="M65 18L66 19L65 18z"/>
<path style="fill:#6a6b6b; stroke:none;" d="M65 22L66 23L65 22z"/>
<path style="fill:#2d89e3; stroke:none;" d="M88 33L98 44C100.947 41.9185 119.419 23.8214 106.981 23.7361C100.721 23.6932 94.0069 31.0985 88 33M155.149 24.1358C147.874 27.5532 158.296 37.131 161.039 40C170.001 49.3722 179.084 58.6341 188.039 68C191.321 71.432 197.235 75.3871 198.824 80C200.505 84.8809 192.903 90.0047 190.039 93C179.916 103.587 169.647 114.126 159.83 125C157.622 127.446 146.415 141.497 158.015 139.242C165.742 137.74 174.298 130.221 181 126.2C197.303 116.418 213.696 106.783 230 97C234.84 94.0956 250.961 87.8033 250.454 81.0278C250.02 75.2347 237.376 70.4259 233 67.8002C214.393 56.6363 195.609 45.7596 177 34.6003C172.505 31.9051 160.494 21.6251 155.149 24.1358z"/>
<path style="fill:#6a6b6b; stroke:none;" d="M80 25L81 26L80 25M81 26L82 27L81 26M82 27L83 28L82 27M83 28L84 29L83 28M84 29L85 30L84 29z"/>
<path style="fill:#9e9e9e; stroke:none;" d="M85 30L86 31L85 30M86 31L87 32L86 31M87 32L88 33L87 32M79 37L80 38L79 37z"/>
<path style="fill:#2d89e3; stroke:none;" d="M80 38C64.3565 49.9364 45.8643 58.8806 29 69C24.8733 71.4762 12.8472 76.0251 13.466 81.9722C14.0735 87.8099 26.5458 92.5274 31 95.1998C49.643 106.385 68.1126 117.952 87 128.719C91.5786 131.329 105.259 142.845 110.377 137.396C114.607 132.893 103.989 124.952 101.424 122C92.9866 112.287 83.466 103.544 74.8302 94C71.8882 90.7485 66.6414 87.2544 65.1759 83C63.7961 78.9943 68.5617 75.4601 71.0008 73C78.1441 65.795 84.8183 58.1817 92 51L92 50L80 38z"/>
<path style="fill:#6a6b6b; stroke:none;" d="M112 58L113 59L112 58M113 59L114 60L113 59M114 60L115 61L114 60M115 61L116 62L115 61M116 62L117 63L116 62z"/>
<path style="fill:#9e9e9e; stroke:none;" d="M117 63L118 64L117 63M118 64L119 65L118 64M119 65L120 66L119 65M120 66L121 67L120 66M121 67L122 68L121 67M112 71L113 72L112 71M113 72L114 73L113 72M114 73L115 74L114 73M115 74L116 75L115 74z"/>
<path style="fill:#6a6b6b; stroke:none;" d="M116 75L117 76L116 75M117 76L118 77L117 76M118 77L119 78L118 77M119 78L120 79L119 78M120 79L121 80L120 79M145 92L146 93L145 92M146 93L147 94L146 93M147 94L148 95L147 94M148 95L149 96L148 95M149 96L150 97L149 96z"/>
<path style="fill:#9e9e9e; stroke:none;" d="M150 97L151 98L150 97M151 98L152 99L151 98M152 99L153 100L152 99M153 100L154 101L153 100M144 104L145 105L144 104M145 105L146 106L145 105M146 106L147 107L146 106M147 107L148 108L147 107z"/>
<path style="fill:#6a6b6b; stroke:none;" d="M148 108L149 109L148 108M149 109L150 110L149 109M150 110L151 111L150 110M151 111L152 112L151 111M152 112L153 113L152 112M153 113L154 114L153 113M178 127L178 128L182 130L178 127z"/>
<path style="fill:#010101; stroke:none;" d="M172 131C173.492 134.2 175.518 136.472 178.005 139C179.652 140.674 181.301 142.358 183 143.981C185.408 146.281 194.023 151.75 193.454 143.956C192.785 134.8 179.619 126.759 172 131z"/>
<path style="fill:#9e9e9e; stroke:none;" d="M182 130L183 131L182 130M183 131L184 132L183 131M184 132L185 133L184 132M185 133L186 134L185 133M177 138L178 139L177 138M105 139L105 140L109 140L105 139M178 139L179 140L178 139M179 140L180 141L179 140M180 141L181 142L180 141z"/>
<path style="fill:#6a6b6b; stroke:none;" d="M181 142L182 143L181 142M182 143L183 144L182 143M183 144L184 145L183 144M184 145L185 146L184 145M185 146L186 147L185 146M193 146L194 147L193 146M186 147L187 148L186 147z"/>
<path style="fill:#9e9e9e; stroke:none;" d="M191 148L192 149L191 148z"/>
</svg>
